<svg width="76" height="76" fill="none" xmlns="http://www.w3.org/2000/svg"><g clip-path="url(#clip0)" fill="#BE0000" stroke="#BE0000" stroke-width=".4"><path d="M19.607 5.737a19.8 19.8 0 00-3.97.402V4.453c0-.708.577-1.284 1.285-1.284h42.401v8.854a4.658 4.658 0 004.654 4.654h8.854v54.87c0 .708-.576 1.284-1.284 1.284H16.922a1.286 1.286 0 01-1.285-1.284V58.83a1.685 1.685 0 00-3.368 0v12.716a4.658 4.658 0 004.653 4.653h54.625a4.658 4.658 0 004.653-4.653V14.99c0-.447-.178-.875-.493-1.19L62.199.292A1.684 1.684 0 0061.008-.2H16.922a4.658 4.658 0 00-4.653 4.653v2.694C4.969 10.07-.2 17.214-.2 25.545c0 .93.754 1.684 1.684 1.684h18.123c.93 0 1.685-.754 1.685-1.684V7.422c0-.93-.755-1.684-1.685-1.684zm-1.684 3.455V23.86H3.254c.79-7.722 6.947-13.879 14.669-14.668zm46.054 4.116a1.286 1.286 0 01-1.285-1.285V5.55l7.759 7.758h-6.474z"/><path d="M13.953 51.753c.444 0 .877.18 1.19.494 0 0 0 0 0 0m-1.19-.494l1.05 2.734c.276-.276.434-.66.434-1.05s-.158-.773-.435-1.049l.142-.141s0 0 0 0m-1.19-.494c-.444 0-.878.18-1.192.494l1.191-.494zm1.19.494c.314.313.493.747.493 1.19 0 .444-.18.878-.493 1.191v-2.381zm-2.875 1.19c0 .444.18.878.493 1.191v-2.381a1.696 1.696 0 00-.493 1.19zm12.655-42.383c-.93 0-1.684.755-1.684 1.685v16.438H6.8c-.93 0-1.684.754-1.684 1.684 0 10.922 8.885 19.808 19.807 19.808 10.922 0 19.807-8.886 19.807-19.807 0-10.922-8.885-19.808-19.807-19.808zm1.684 15.741V14.51a16.362 16.362 0 018.682 3.604l-8.682 8.682zM24.924 47.3c-8.495 0-15.507-6.478-16.353-14.754h16.353a1.68 1.68 0 001.191-.493l11.558-11.558a16.361 16.361 0 013.69 10.366c0 9.064-7.375 16.439-16.439 16.439zM8.552 32.346h16.372c.41 0 .78-.166 1.05-.434h0l11.57-11.572L8.553 32.346zm56.474 14.302a4.658 4.658 0 00-4.336 6.34l-8.359 8.36a4.627 4.627 0 00-1.901-.407c-.66 0-1.289.139-1.858.388l-5.49-5.49a4.63 4.63 0 00.273-1.57 4.658 4.658 0 00-4.653-4.653 4.658 4.658 0 00-4.653 4.653c0 .646.133 1.26.372 1.82L29.17 61.34a4.624 4.624 0 00-1.872-.393 4.658 4.658 0 00-4.653 4.653 4.658 4.658 0 004.653 4.653 4.658 4.658 0 004.654-4.653c0-.668-.142-1.305-.398-1.88l5.218-5.218c.589.27 1.242.42 1.93.42.781 0 1.517-.194 2.164-.535l5.313 5.314a4.629 4.629 0 00-.402 1.893 4.658 4.658 0 004.653 4.653 4.658 4.658 0 004.653-4.653c0-.657-.137-1.282-.384-1.85l8.27-8.27c.621.307 1.32.48 2.057.48A4.658 4.658 0 0069.68 51.3a4.658 4.658 0 00-4.654-4.653zM27.298 66.885a1.286 1.286 0 01-1.284-1.285c0-.708.576-1.284 1.284-1.284a1.278 1.278 0 01.885.356h0l.018.02.021.02.003.002c.222.231.358.543.358.886 0 .708-.577 1.285-1.285 1.285zm11.404-11.331a1.286 1.286 0 01-1.284-1.285 1.285 1.285 0 012.569 0c0 .708-.577 1.285-1.285 1.285zM50.43 66.878a1.286 1.286 0 01-1.284-1.284 1.285 1.285 0 012.569 0c0 .708-.576 1.284-1.285 1.284zm14.597-14.293a1.286 1.286 0 01-1.284-1.284c0-.708.576-1.285 1.284-1.285.708 0 1.285.577 1.285 1.285s-.577 1.284-1.285 1.284zm-7.42-17.902h-7.834a1.685 1.685 0 000 3.369h7.834a1.685 1.685 0 000-3.37zm6.758 0c.444 0 .878.18 1.191.493 0 0 0 0 0 0s0 0 0 0c.314.314.494.748.494 1.191 0 .444-.18.878-.494 1.19m-1.19-2.874l1.19 2.875m-1.19-2.875c-.444 0-.878.18-1.191.493l1.19-.493zm1.19 2.875l-.141-.142.141.142s0 0 0 0 0 0 0 0zm-2.381 0l.141-.142-.141.142s0 0 0 0zm4.73-17.125H49.773a1.685 1.685 0 000 3.369h18.132a1.685 1.685 0 000-3.37zm0 7.125H49.773a1.685 1.685 0 000 3.369h18.132a1.685 1.685 0 000-3.37z"/></g><defs><clipPath id="clip0"><path fill="#fff" d="M0 0h76v76H0z"/></clipPath></defs></svg>