<svg width="82" height="82" fill="none" xmlns="http://www.w3.org/2000/svg"><g clip-path="url(#clip0)" fill="#BE0000"><path d="M41 32.992a4.81 4.81 0 00-4.805 4.805 4.83 4.83 0 00.912 2.815l-.897 6.578a1.601 1.601 0 001.587 1.818h6.406a1.602 1.602 0 001.587-1.818l-.897-6.578a4.825 4.825 0 00.912-2.815A4.81 4.81 0 0041 32.992zm.622 7.34l.746 5.473h-2.736l.746-5.472c.07-.51-.11-1.023-.483-1.378A1.603 1.603 0 0141 36.195c.883 0 1.602.719 1.602 1.602 0 .443-.177.854-.497 1.158a1.602 1.602 0 00-.483 1.378z"/><path d="M77.195 36.195a4.812 4.812 0 00-4.529 3.203h-8.383c.489-2.704.74-5.455.74-8.206v-1.403h8.97a1.6 1.6 0 001.6-1.602V16.701a4.812 4.812 0 003.204-4.53 4.81 4.81 0 00-4.805-4.804 4.81 4.81 0 00-4.805 4.805 4.812 4.812 0 003.204 4.53v9.884h-7.368v-8.008a1.601 1.601 0 00-2.108-1.52A22.7 22.7 0 0145.47 15.82l-3.752-1.877a1.601 1.601 0 00-1.433 0L36.53 15.82a22.702 22.702 0 01-17.446 1.239 1.602 1.602 0 00-2.108 1.52v8.007H9.609V16.7a4.812 4.812 0 003.204-4.53 4.81 4.81 0 00-4.805-4.804 4.81 4.81 0 00-4.805 4.805 4.812 4.812 0 003.203 4.53v11.485c0 .885.717 1.602 1.602 1.602h8.969v1.401c0 2.78.253 5.524.741 8.208H9.334a4.812 4.812 0 00-4.53-3.203A4.81 4.81 0 000 41a4.81 4.81 0 004.805 4.805 4.812 4.812 0 004.529-3.203h9.085a46.247 46.247 0 003.647 9.609H8.008c-.885 0-1.602.717-1.602 1.602v11.486a4.812 4.812 0 00-3.203 4.53 4.81 4.81 0 004.805 4.804 4.81 4.81 0 004.805-4.805 4.812 4.812 0 00-3.204-4.53v-9.884h14.264A46.065 46.065 0 0040.205 71.22a1.599 1.599 0 001.59 0 46.17 46.17 0 0016.338-15.805h14.258V65.3a4.812 4.812 0 00-3.204 4.53 4.81 4.81 0 004.805 4.804 4.81 4.81 0 004.805-4.805 4.812 4.812 0 00-3.203-4.53V53.813c0-.884-.717-1.601-1.602-1.601h-14.05a45.968 45.968 0 003.647-9.61h9.077a4.812 4.812 0 004.53 3.204A4.81 4.81 0 0082 41a4.81 4.81 0 00-4.805-4.805zM73.992 10.57c.883 0 1.602.719 1.602 1.602 0 .883-.719 1.601-1.602 1.601a1.603 1.603 0 01-1.601-1.601c0-.883.718-1.602 1.601-1.602zM8.008 13.773a1.603 1.603 0 01-1.602-1.601c0-.883.719-1.602 1.602-1.602a1.603 1.603 0 010 3.203zM4.805 42.602A1.603 1.603 0 013.203 41c0-.883.719-1.602 1.602-1.602.883 0 1.601.719 1.601 1.602 0 .883-.718 1.602-1.601 1.602zM8.008 71.43a1.603 1.603 0 01-1.602-1.602 1.603 1.603 0 111.602 1.602zm65.984-3.203c.883 0 1.602.718 1.602 1.601s-.719 1.602-1.602 1.602a1.603 1.603 0 01-1.601-1.602c0-.883.718-1.601 1.601-1.601zM61.82 31.192c0 15.407-8.23 29.22-20.82 36.78C28.134 60.247 20.18 46.24 20.18 31.19V20.705c5.979 1.459 12.217.763 17.784-2.02L41 17.164l3.036 1.52c5.567 2.783 11.806 3.479 17.784 2.02v10.487zm15.375 11.41A1.603 1.603 0 0175.594 41c0-.883.718-1.602 1.601-1.602s1.602.719 1.602 1.602c0 .883-.719 1.602-1.602 1.602z"/><path d="M51.41 52.788a1.602 1.602 0 100-3.204 1.602 1.602 0 000 3.203z"/><path d="M41.714 21.105a1.602 1.602 0 00-1.43 0l-.889.445a29.418 29.418 0 01-14.347 3.06 1.602 1.602 0 00-1.665 1.601v4.98c0 12.813 6.238 24.906 16.688 32.347a1.6 1.6 0 001.858 0 39.687 39.687 0 006.276-5.559 1.601 1.601 0 10-2.366-2.16A36.513 36.513 0 0141 60.245c-9.046-6.885-14.413-17.66-14.413-29.055v-3.35c8.152-.07 14.256-3.453 14.415-3.51.168.06 6.25 3.44 14.413 3.51v3.353c0 4.428-.8 8.778-2.378 12.93a1.602 1.602 0 002.994 1.138 39.456 39.456 0 002.587-14.068v-4.98c0-.907-.753-1.636-1.665-1.601a29.413 29.413 0 01-14.35-3.064l-.888-.442z"/></g><defs><clipPath id="clip0"><path fill="#fff" d="M0 0h82v82H0z"/></clipPath></defs></svg>