<svg width="12" height="12" fill="none" xmlns="http://www.w3.org/2000/svg"><path d="M10.594.938h-.563V0h-.937v.938H2.906V0H1.97v.938h-.563C.631.938 0 1.567 0 2.343v8.25C0 11.369.63 12 1.406 12h9.188c.775 0 1.406-.63 1.406-1.406v-8.25c0-.776-.63-1.406-1.406-1.406zm.469 9.656a.47.47 0 01-.47.469H1.407a.47.47 0 01-.468-.47V4.407h10.124v6.188zm0-7.125H.937V2.344a.47.47 0 01.47-.469h.562v.938h.937v-.938h6.188v.938h.937v-.938h.563a.47.47 0 01.469.469v1.125z" fill="#fff"/><path d="M2.719 5.39H1.78v.938h.938v-.937zm1.875 0h-.938v.938h.938v-.937zm1.875 0H5.53v.938h.938v-.937zm1.875 0h-.938v.938h.938v-.937zm1.875 0H9.28v.938h.938v-.937zm-7.5 1.876H1.78v.937h.938v-.937zm1.875 0h-.938v.937h.938v-.937zm1.875 0H5.53v.937h.938v-.937zm1.875 0h-.938v.937h.938v-.937zM2.719 9.14H1.78v.938h.938v-.937zm1.875 0h-.938v.938h.938v-.937zm1.875 0H5.53v.938h.938v-.937zm1.875 0h-.938v.938h.938v-.937zm1.875-1.874H9.28v.937h.938v-.937z" fill="#fff"/></svg>