<svg xmlns="http://www.w3.org/2000/svg" width="485.213" height="485.212" fill="#be0000"><path d="M363.908 212.282v-90.978C363.908 54.434 309.509 0 242.606 0c-66.884 0-121.302 54.434-121.302 121.304v90.978c-33.498 0-60.653 27.158-60.653 60.648v151.629c0 33.5 27.155 60.653 60.653 60.653h242.604c33.491 0 60.653-27.153 60.653-60.653V272.93c.001-33.491-27.162-60.648-60.653-60.648zM257.77 359.257v50.139c0 8.382-6.781 15.163-15.163 15.163-8.382 0-15.164-6.781-15.164-15.163v-50.139c-8.9-5.269-15.161-14.57-15.161-25.673 0-16.765 13.579-30.327 30.324-30.327s30.326 13.562 30.326 30.327c.001 11.103-6.267 20.405-15.162 25.673zm45.485-146.975h-121.3v-90.978c0-33.465 27.2-60.653 60.651-60.653 33.435 0 60.648 27.188 60.648 60.653v90.978z"/></svg>