<svg width="72" height="72" fill="none" xmlns="http://www.w3.org/2000/svg"><path d="M24.037 24.998a2.107 2.107 0 002.955.418 2.11 2.11 0 00.418-2.955 10.837 10.837 0 01-2.162-6.473c0-2.48.866-4.905 2.44-6.824a2.111 2.111 0 00-3.266-2.675 15.03 15.03 0 00-3.395 9.5c0 3.229 1.07 6.428 3.01 9.009z" fill="#BE0000"/><path d="M19.53 31.504a2.11 2.11 0 001.636-3.441 19.196 19.196 0 01-4.289-12.075 19.15 19.15 0 014.646-12.5A2.11 2.11 0 0018.326.733a23.37 23.37 0 00-5.67 15.257 23.43 23.43 0 005.235 14.736 2.105 2.105 0 001.638.779zm27.26-15.516c0 2.32-.767 4.62-2.161 6.473a2.11 2.11 0 003.373 2.537c1.94-2.58 3.01-5.78 3.01-9.01a15.03 15.03 0 00-3.395-9.5 2.111 2.111 0 00-3.265 2.675 10.8 10.8 0 012.439 6.825z" fill="#BE0000"/><path d="M55.162 15.988c0 4.384-1.523 8.672-4.289 12.074a2.11 2.11 0 103.275 2.662 23.427 23.427 0 005.235-14.736A23.369 23.369 0 0053.713.732a2.11 2.11 0 00-3.197 2.757 19.146 19.146 0 014.646 12.5zm.698 51.792h-5.925L39.151 21.815a6.625 6.625 0 003.484-5.828 6.626 6.626 0 00-6.618-6.618 6.626 6.626 0 00-6.619 6.618 6.624 6.624 0 003.484 5.828L22.098 67.78h-5.913a2.11 2.11 0 100 4.22H55.86a2.11 2.11 0 100-4.22zM41.616 50.802l-8.07-4.811 6.102-3.575 1.968 8.386zm-5.6-37.212a2.4 2.4 0 012.397 2.397 2.4 2.4 0 01-2.398 2.398 2.4 2.4 0 01-2.397-2.398 2.4 2.4 0 012.398-2.397zm0 13.342l2.623 11.183-6.083 3.564 3.46-14.747zm-5.238 22.323l9.879 5.89-13.075 7.733 3.196-13.623zm-3.19 18.523l15.816-9.355 2.194 9.355H27.59z" fill="#BE0000"/></svg>