<svg width="74" height="74" fill="none" xmlns="http://www.w3.org/2000/svg"><g clip-path="url(#clip0)"><mask id="a" maskUnits="userSpaceOnUse" x="-1" y="-1" width="76" height="76" fill="#000"><path fill="#fff" d="M-1-1h76v76H-1z"/><path d="M70.662 12.14H55.5a1.084 1.084 0 100 2.169h15.162c.645 0 1.17.524 1.17 1.17V57.22a1.17 1.17 0 01-1.17 1.17H3.338a1.17 1.17 0 01-1.17-1.17V15.478c0-.645.524-1.17 1.17-1.17h23.816v2.169H5.42c-.6 0-1.084.485-1.084 1.084v28.641a1.084 1.084 0 102.168 0V18.645h20.65v5.815l-4.641 2.217c-.37.177-.617.56-.617.978v17.678c0 .418.24.798.617.979l14.02 6.698a1.1 1.1 0 00.934 0l7.882-3.766a1.084 1.084 0 10-.935-1.956l-6.33 3.024V35.036l11.851-5.662V44.65l-1.61.769a1.084 1.084 0 00.935 1.956l2.227-1.063c.377-.18.616-.561.616-.979V27.655c0-.413-.24-.798-.616-.978l-4.64-2.217v-5.816h20.65v35.41H6.503v-3.227a1.084 1.084 0 10-2.168 0v4.312c0 .599.485 1.084 1.084 1.084h63.16c.6 0 1.084-.485 1.084-1.084V17.56c0-.6-.485-1.084-1.084-1.084H46.846v-2.168h4.029a1.084 1.084 0 100-2.168h-4.029V9.973h9.72c.599 0 1.084-.485 1.084-1.084V6.318a3.257 3.257 0 002.168-3.066A3.256 3.256 0 0056.566 0a3.256 3.256 0 00-3.252 3.252c0 1.413.906 2.618 2.168 3.066v1.487h-9.72c-.599 0-1.084.485-1.084 1.084v3.252h-6.594V6.318a3.257 3.257 0 002.168-3.066A3.256 3.256 0 0037 0a3.256 3.256 0 00-3.252 3.252c0 1.413.906 2.618 2.168 3.066v5.823h-6.594V8.889c0-.6-.485-1.084-1.084-1.084h-9.72V6.318a3.257 3.257 0 002.168-3.066A3.256 3.256 0 0017.434 0a3.256 3.256 0 00-3.252 3.252c0 1.413.906 2.618 2.168 3.066v2.57c0 .6.485 1.085 1.084 1.085h9.72v2.168H3.338A3.342 3.342 0 000 15.478v41.743a3.342 3.342 0 003.338 3.338h23.5c-.419 3.976-3.048 6.298-3.877 6.937h-4.605a3.256 3.256 0 00-3.253 3.252A3.256 3.256 0 0018.355 74h37.29a3.256 3.256 0 003.252-3.252 3.256 3.256 0 00-3.252-3.252H51.04c-.817-.637-3.456-2.98-3.879-6.937h23.5A3.342 3.342 0 0074 57.22V15.478a3.342 3.342 0 00-3.338-3.337zM56.566 2.169a1.085 1.085 0 010 2.168 1.085 1.085 0 010-2.168zM37 2.168a1.085 1.085 0 010 2.168 1.085 1.085 0 010-2.168zm-19.566 0a1.085 1.085 0 010 2.168 1.085 1.085 0 010-2.168zm11.888 16.477h6.594v1.628l-6.594 3.151v-4.78zm19.183 9.01L37 33.151l-11.505-5.496L37 22.158l11.505 5.497zm-24.44 1.72l11.851 5.661v15.276L24.065 44.65V29.374zm20.613-5.95l-6.594-3.152v-1.628h6.594v4.78zm0-9.116v2.168h-6.594v-2.168h6.594zm-8.762 0v2.168h-6.594v-2.168h6.594zm20.813 56.439c0 .598-.487 1.084-1.084 1.084h-37.29a1.085 1.085 0 010-2.168h37.29c.597 0 1.083.486 1.083 1.084zm-8.797-3.252H26.068c1.27-1.484 2.68-3.797 2.95-6.937h15.963c.27 3.14 1.68 5.453 2.951 6.937z"/></mask><path d="M70.662 12.14H55.5a1.084 1.084 0 100 2.169h15.162c.645 0 1.17.524 1.17 1.17V57.22a1.17 1.17 0 01-1.17 1.17H3.338a1.17 1.17 0 01-1.17-1.17V15.478c0-.645.524-1.17 1.17-1.17h23.816v2.169H5.42c-.6 0-1.084.485-1.084 1.084v28.641a1.084 1.084 0 102.168 0V18.645h20.65v5.815l-4.641 2.217c-.37.177-.617.56-.617.978v17.678c0 .418.24.798.617.979l14.02 6.698a1.1 1.1 0 00.934 0l7.882-3.766a1.084 1.084 0 10-.935-1.956l-6.33 3.024V35.036l11.851-5.662V44.65l-1.61.769a1.084 1.084 0 00.935 1.956l2.227-1.063c.377-.18.616-.561.616-.979V27.655c0-.413-.24-.798-.616-.978l-4.64-2.217v-5.816h20.65v35.41H6.503v-3.227a1.084 1.084 0 10-2.168 0v4.312c0 .599.485 1.084 1.084 1.084h63.16c.6 0 1.084-.485 1.084-1.084V17.56c0-.6-.485-1.084-1.084-1.084H46.846v-2.168h4.029a1.084 1.084 0 100-2.168h-4.029V9.973h9.72c.599 0 1.084-.485 1.084-1.084V6.318a3.257 3.257 0 002.168-3.066A3.256 3.256 0 0056.566 0a3.256 3.256 0 00-3.252 3.252c0 1.413.906 2.618 2.168 3.066v1.487h-9.72c-.599 0-1.084.485-1.084 1.084v3.252h-6.594V6.318a3.257 3.257 0 002.168-3.066A3.256 3.256 0 0037 0a3.256 3.256 0 00-3.252 3.252c0 1.413.906 2.618 2.168 3.066v5.823h-6.594V8.889c0-.6-.485-1.084-1.084-1.084h-9.72V6.318a3.257 3.257 0 002.168-3.066A3.256 3.256 0 0017.434 0a3.256 3.256 0 00-3.252 3.252c0 1.413.906 2.618 2.168 3.066v2.57c0 .6.485 1.085 1.084 1.085h9.72v2.168H3.338A3.342 3.342 0 000 15.478v41.743a3.342 3.342 0 003.338 3.338h23.5c-.419 3.976-3.048 6.298-3.877 6.937h-4.605a3.256 3.256 0 00-3.253 3.252A3.256 3.256 0 0018.355 74h37.29a3.256 3.256 0 003.252-3.252 3.256 3.256 0 00-3.252-3.252H51.04c-.817-.637-3.456-2.98-3.879-6.937h23.5A3.342 3.342 0 0074 57.22V15.478a3.342 3.342 0 00-3.338-3.337zM56.566 2.169a1.085 1.085 0 010 2.168 1.085 1.085 0 010-2.168zM37 2.168a1.085 1.085 0 010 2.168 1.085 1.085 0 010-2.168zm-19.566 0a1.085 1.085 0 010 2.168 1.085 1.085 0 010-2.168zm11.888 16.477h6.594v1.628l-6.594 3.151v-4.78zm19.183 9.01L37 33.151l-11.505-5.496L37 22.158l11.505 5.497zm-24.44 1.72l11.851 5.661v15.276L24.065 44.65V29.374zm20.613-5.95l-6.594-3.152v-1.628h6.594v4.78zm0-9.116v2.168h-6.594v-2.168h6.594zm-8.762 0v2.168h-6.594v-2.168h6.594zm20.813 56.439c0 .598-.487 1.084-1.084 1.084h-37.29a1.085 1.085 0 010-2.168h37.29c.597 0 1.083.486 1.083 1.084zm-8.797-3.252H26.068c1.27-1.484 2.68-3.797 2.95-6.937h15.963c.27 3.14 1.68 5.453 2.951 6.937z" fill="#BE0000"/><path d="M70.662 12.14H55.5a1.084 1.084 0 100 2.169h15.162c.645 0 1.17.524 1.17 1.17V57.22a1.17 1.17 0 01-1.17 1.17H3.338a1.17 1.17 0 01-1.17-1.17V15.478c0-.645.524-1.17 1.17-1.17h23.816v2.169H5.42c-.6 0-1.084.485-1.084 1.084v28.641a1.084 1.084 0 102.168 0V18.645h20.65v5.815l-4.641 2.217c-.37.177-.617.56-.617.978v17.678c0 .418.24.798.617.979l14.02 6.698a1.1 1.1 0 00.934 0l7.882-3.766a1.084 1.084 0 10-.935-1.956l-6.33 3.024V35.036l11.851-5.662V44.65l-1.61.769a1.084 1.084 0 00.935 1.956l2.227-1.063c.377-.18.616-.561.616-.979V27.655c0-.413-.24-.798-.616-.978l-4.64-2.217v-5.816h20.65v35.41H6.503v-3.227a1.084 1.084 0 10-2.168 0v4.312c0 .599.485 1.084 1.084 1.084h63.16c.6 0 1.084-.485 1.084-1.084V17.56c0-.6-.485-1.084-1.084-1.084H46.846v-2.168h4.029a1.084 1.084 0 100-2.168h-4.029V9.973h9.72c.599 0 1.084-.485 1.084-1.084V6.318a3.257 3.257 0 002.168-3.066A3.256 3.256 0 0056.566 0a3.256 3.256 0 00-3.252 3.252c0 1.413.906 2.618 2.168 3.066v1.487h-9.72c-.599 0-1.084.485-1.084 1.084v3.252h-6.594V6.318a3.257 3.257 0 002.168-3.066A3.256 3.256 0 0037 0a3.256 3.256 0 00-3.252 3.252c0 1.413.906 2.618 2.168 3.066v5.823h-6.594V8.889c0-.6-.485-1.084-1.084-1.084h-9.72V6.318a3.257 3.257 0 002.168-3.066A3.256 3.256 0 0017.434 0a3.256 3.256 0 00-3.252 3.252c0 1.413.906 2.618 2.168 3.066v2.57c0 .6.485 1.085 1.084 1.085h9.72v2.168H3.338A3.342 3.342 0 000 15.478v41.743a3.342 3.342 0 003.338 3.338h23.5c-.419 3.976-3.048 6.298-3.877 6.937h-4.605a3.256 3.256 0 00-3.253 3.252A3.256 3.256 0 0018.355 74h37.29a3.256 3.256 0 003.252-3.252 3.256 3.256 0 00-3.252-3.252H51.04c-.817-.637-3.456-2.98-3.879-6.937h23.5A3.342 3.342 0 0074 57.22V15.478a3.342 3.342 0 00-3.338-3.337zM56.566 2.169a1.085 1.085 0 010 2.168 1.085 1.085 0 010-2.168zM37 2.168a1.085 1.085 0 010 2.168 1.085 1.085 0 010-2.168zm-19.566 0a1.085 1.085 0 010 2.168 1.085 1.085 0 010-2.168zm11.888 16.477h6.594v1.628l-6.594 3.151v-4.78zm19.183 9.01L37 33.151l-11.505-5.496L37 22.158l11.505 5.497zm-24.44 1.72l11.851 5.661v15.276L24.065 44.65V29.374zm20.613-5.95l-6.594-3.152v-1.628h6.594v4.78zm0-9.116v2.168h-6.594v-2.168h6.594zm-8.762 0v2.168h-6.594v-2.168h6.594zm20.813 56.439c0 .598-.487 1.084-1.084 1.084h-37.29a1.085 1.085 0 010-2.168h37.29c.597 0 1.083.486 1.083 1.084zm-8.797-3.252H26.068c1.27-1.484 2.68-3.797 2.95-6.937h15.963c.27 3.14 1.68 5.453 2.951 6.937z" stroke="#BE0000" stroke-width=".8" mask="url(#a)"/></g><defs><clipPath id="clip0"><path fill="#fff" d="M0 0h74v74H0z"/></clipPath></defs></svg>