<svg width="72" height="72" fill="none" xmlns="http://www.w3.org/2000/svg"><g clip-path="url(#clip0)" fill="#BE0000" stroke="#BE0000" stroke-width=".4"><path d="M17.407 4.933h0a1.606 1.606 0 00-.55 2.204l.17-.103-.17.103a1.606 1.606 0 002.203.551h0a32.834 32.834 0 0110.848-4.11c-1.169 1.605-2.233 3.705-3.175 6.276l.188.07-.188-.07a50.328 50.328 0 00-1.615 5.399 32.81 32.81 0 01-6.06-2.84h0a1.606 1.606 0 00-1.654 2.754h0a36.031 36.031 0 007.028 3.248c-.759 3.944-1.259 8.302-1.463 12.854a5.002 5.002 0 00-3.21 3.125H3.05c.324-6.867 2.725-13.32 6.994-18.754a1.606 1.606 0 00-.27-2.256h0a1.606 1.606 0 00-2.256.27C2.469 20.083-.2 27.81-.2 36c0 9.669 3.766 18.76 10.603 25.597S26.33 72.2 36 72.2s18.76-3.766 25.597-10.603S72.2 45.67 72.2 36s-3.766-18.76-10.603-25.597S45.67-.2 36-.2a36.152 36.152 0 00-18.593 5.133zm51.54 29.46H49.124c-.066-4.453-.406-8.746-1.014-12.797a4.984 4.984 0 002.55-4.372 35.935 35.935 0 008.173-5.009c5.894 5.66 9.694 13.484 10.112 22.179zm-42.218 27.74c.943 2.577 2.008 4.681 3.178 6.288a32.857 32.857 0 01-14.259-6.48 32.825 32.825 0 019.467-5.209 50.38 50.38 0 001.614 5.401zm3.017-1.104a47.58 47.58 0 01-1.548-5.21 33.007 33.007 0 0112.524-.58 4.985 4.985 0 002.232 3.696c-.96 3.125-2.1 5.637-3.303 7.371-1.23 1.773-2.49 2.681-3.651 2.681-.997 0-2.093-.695-3.187-2.07-1.088-1.366-2.145-3.367-3.067-5.888zM45.68 53a1.77 1.77 0 011.768 1.769 1.77 1.77 0 01-1.768 1.769 1.771 1.771 0 01-1.77-1.77c0-.974.794-1.768 1.77-1.768zm-3.598 15.424c1.527-2.09 2.873-5.014 3.986-8.69a4.977 4.977 0 003.54-1.908 32.71 32.71 0 016.76 4.102 32.855 32.855 0 01-14.286 6.496zm3.829-30.817c-.065 4.262-.388 8.366-.965 12.236a4.99 4.99 0 00-3.472 2.26 36.614 36.614 0 00-13.943.595c-.693-3.68-1.154-7.745-1.35-12.003a5.003 5.003 0 003.008-3.088h16.722zm.163-25.322C44.96 8.6 43.613 5.67 42.084 3.577a32.856 32.856 0 0114.286 6.496 32.717 32.717 0 01-6.77 4.107 4.978 4.978 0 00-3.525-1.896zm-2.163 4.966a1.77 1.77 0 011.769-1.769 1.77 1.77 0 011.768 1.769 1.77 1.77 0 01-1.768 1.769 1.77 1.77 0 01-1.77-1.77zM29.75 10.96c.922-2.518 1.978-4.516 3.065-5.88C33.91 3.706 35.004 3.012 36 3.012c1.163 0 2.423.91 3.654 2.685 1.204 1.736 2.345 4.252 3.305 7.382a4.985 4.985 0 00-2.235 3.68 33.106 33.106 0 01-12.523-.595 47.47 47.47 0 011.549-5.205l-.188-.07.188.07zm6.252 9.352c1.818 0 3.644-.138 5.462-.414a4.989 4.989 0 003.486 2.279c.574 3.863.897 7.96.962 12.217H29.178a5.004 5.004 0 00-2.997-3.053c.195-4.269.656-8.345 1.35-12.033A36.222 36.222 0 0036 20.312zM24.468 34.249a1.77 1.77 0 011.768 1.769 1.77 1.77 0 01-1.768 1.769 1.77 1.77 0 01-1.77-1.77 1.77 1.77 0 011.77-1.768zM13.183 59.8c-5.904-5.661-9.71-13.49-10.13-22.194h16.695a5.002 5.002 0 003.222 3.161c.206 4.54.705 8.885 1.462 12.818a35.647 35.647 0 00-11.25 6.215zm45.651-.015a35.926 35.926 0 00-8.172-5.008v-.01a4.984 4.984 0 00-2.553-4.346c.61-4.057.95-8.357 1.016-12.815h19.822c-.42 8.695-4.219 16.518-10.113 22.179z"/><path d="M14.263 11.184h0c.299-.3.47-.713.47-1.136 0-.423-.171-.837-.47-1.136h0a1.62 1.62 0 00-1.137-.47c-.423 0-.837.17-1.136.47-.299.299-.47.713-.47 1.136 0 .423.171.836.47 1.135.3.3.713.47 1.136.47a1.62 1.62 0 001.137-.47z"/></g><defs><clipPath id="clip0"><path fill="#fff" d="M0 0h72v72H0z"/></clipPath></defs></svg>