<svg width="68" height="68" fill="none" xmlns="http://www.w3.org/2000/svg"><g clip-path="url(#clip0)"><mask id="a" maskUnits="userSpaceOnUse" x="-1" y="-1" width="70" height="70" fill="#000"><path fill="#fff" d="M-1-1h70v70H-1z"/><path d="M64.033 60.066c-.9 0-1.722.314-2.389.822L48.536 47.58a20.11 20.11 0 005.002-12.448h5.453c.277 1.918 1.916 3.4 3.909 3.4a3.971 3.971 0 003.967-3.967A3.972 3.972 0 0062.9 30.6c-1.576 0-2.93.932-3.569 2.268h-5.819a20.118 20.118 0 00-5.161-12.136L61.524 7.011a3.925 3.925 0 002.51.921A3.972 3.972 0 0068 3.967 3.972 3.972 0 0064.033 0a3.971 3.971 0 00-3.967 3.967c0 .386.074.753.177 1.106l-13.502 14.06c-3.154-2.793-7.172-4.623-11.608-5.012V7.535A3.96 3.96 0 0037.4 3.967 3.972 3.972 0 0033.433 0a3.972 3.972 0 00-3.967 3.967c0 1.993 1.484 3.631 3.4 3.909v6.18a20.119 20.119 0 00-12.612 4.82L7.43 5.86a3.911 3.911 0 00.503-1.893A3.971 3.971 0 003.967 0 3.971 3.971 0 000 3.967a3.971 3.971 0 003.967 3.966c.672 0 1.296-.183 1.851-.48L18.62 20.445a20.133 20.133 0 00-5.42 12.42H7.536a3.961 3.961 0 00-3.57-2.266A3.971 3.971 0 000 34.567a3.971 3.971 0 003.967 3.966c1.993 0 3.631-1.482 3.909-3.4h5.297a20.136 20.136 0 005.604 13.11l-.003.015L6.518 61.022a3.93 3.93 0 00-2.551-.956A3.971 3.971 0 000 64.034 3.972 3.972 0 003.967 68a3.972 3.972 0 003.966-3.967c0-.365-.065-.712-.158-1.048l12.658-13.183a20.118 20.118 0 0012.434 4.658v5.664c-1.917.278-3.4 1.917-3.4 3.91A3.972 3.972 0 0033.433 68a3.972 3.972 0 003.967-3.967 3.96 3.96 0 00-2.266-3.568v-6.07c4.532-.398 8.628-2.3 11.81-5.2L60.3 62.75a3.91 3.91 0 00-.233 1.283A3.972 3.972 0 0064.034 68 3.972 3.972 0 0068 64.033a3.972 3.972 0 00-3.967-3.967zm-28.9-15.905c1.403.14 2.77.454 4.087.91-1.066 3.245-2.551 5.51-4.087 6.427V44.16zm0-2.275v-6.753h5.647c-.059 2.87-.396 5.49-.938 7.757a20.127 20.127 0 00-4.709-1.004zm0-9.02V26.63a20.145 20.145 0 004.71-1.003c.508 2.13.838 4.572.925 7.24h-5.635zm0-8.511v-7.338c1.536.918 3.021 3.182 4.088 6.428a17.935 17.935 0 01-4.088.91zm3.343-7.304c2.31.689 4.43 1.824 6.249 3.316a17.913 17.913 0 01-3.4 2.21c-.754-2.244-1.723-4.123-2.849-5.526zm-5.61-.37v7.74a17.978 17.978 0 01-4.874-.796c1.236-3.86 3.063-6.376 4.875-6.943zm-6.995 6.117a17.836 17.836 0 01-3.894-2.423 17.91 17.91 0 016.963-3.506c-1.226 1.465-2.274 3.49-3.069 5.929zm6.996 3.89v6.179h-6.363c.086-2.593.401-4.967.885-7.053 1.758.54 3.598.83 5.478.874zm0 8.445v6.694a20.25 20.25 0 00-5.478.87c-.516-2.222-.839-4.772-.897-7.564h6.375zm0 8.961v7.74c-1.812-.568-3.64-3.086-4.876-6.947a17.98 17.98 0 014.876-.793zm-3.927 7.552a17.907 17.907 0 01-6.969-3.51 17.864 17.864 0 013.9-2.42c.795 2.44 1.843 4.465 3.069 5.93zm12.385-5.71a17.927 17.927 0 013.399 2.213 17.928 17.928 0 01-6.249 3.315c1.127-1.402 2.096-3.283 2.85-5.528zm5.057.65a20.197 20.197 0 00-4.412-2.843c.64-2.567 1.016-5.487 1.077-8.61h8.225a17.873 17.873 0 01-4.89 11.453zM62.9 32.866a1.701 1.701 0 11-1.7 1.7c0-.937.763-1.7 1.7-1.7zm-19.866 0c-.09-2.928-.46-5.67-1.065-8.095a20.153 20.153 0 004.413-2.84 17.878 17.878 0 014.864 10.936h-8.212zm21-30.6a1.701 1.701 0 11-1.701 1.7c0-.937.763-1.7 1.7-1.7zm-32.3 1.7c0-.937.762-1.7 1.7-1.7a1.701 1.701 0 11-1.701 1.7zm-29.468 0c0-.937.763-1.7 1.7-1.7a1.701 1.701 0 11-1.7 1.7zm18.059 17.969a20.11 20.11 0 004.925 3.073c-.572 2.368-.924 5.023-1.012 7.859h-8.772a17.875 17.875 0 014.859-10.932zM3.967 36.267a1.701 1.701 0 111.7-1.7c0 .937-.763 1.7-1.7 1.7zm20.26-1.134c.059 3.028.417 5.861 1.022 8.37a20.087 20.087 0 00-4.928 3.074 17.87 17.87 0 01-4.882-11.444h8.788zm-20.26 30.6a1.701 1.701 0 010-3.4 1.695 1.695 0 011.453.833c.153.255.247.549.247.867 0 .938-.763 1.7-1.7 1.7zm29.466 0a1.701 1.701 0 010-3.4 1.701 1.701 0 010 3.4zm30.6 0c-.937 0-1.7-.762-1.7-1.7 0-.937.763-1.7 1.7-1.7a1.7 1.7 0 010 3.4z"/></mask><path d="M64.033 60.066c-.9 0-1.722.314-2.389.822L48.536 47.58a20.11 20.11 0 005.002-12.448h5.453c.277 1.918 1.916 3.4 3.909 3.4a3.971 3.971 0 003.967-3.967A3.972 3.972 0 0062.9 30.6c-1.576 0-2.93.932-3.569 2.268h-5.819a20.118 20.118 0 00-5.161-12.136L61.524 7.011a3.925 3.925 0 002.51.921A3.972 3.972 0 0068 3.967 3.972 3.972 0 0064.033 0a3.971 3.971 0 00-3.967 3.967c0 .386.074.753.177 1.106l-13.502 14.06c-3.154-2.793-7.172-4.623-11.608-5.012V7.535A3.96 3.96 0 0037.4 3.967 3.972 3.972 0 0033.433 0a3.972 3.972 0 00-3.967 3.967c0 1.993 1.484 3.631 3.4 3.909v6.18a20.119 20.119 0 00-12.612 4.82L7.43 5.86a3.911 3.911 0 00.503-1.893A3.971 3.971 0 003.967 0 3.971 3.971 0 000 3.967a3.971 3.971 0 003.967 3.966c.672 0 1.296-.183 1.851-.48L18.62 20.445a20.133 20.133 0 00-5.42 12.42H7.536a3.961 3.961 0 00-3.57-2.266A3.971 3.971 0 000 34.567a3.971 3.971 0 003.967 3.966c1.993 0 3.631-1.482 3.909-3.4h5.297a20.136 20.136 0 005.604 13.11l-.003.015L6.518 61.022a3.93 3.93 0 00-2.551-.956A3.971 3.971 0 000 64.034 3.972 3.972 0 003.967 68a3.972 3.972 0 003.966-3.967c0-.365-.065-.712-.158-1.048l12.658-13.183a20.118 20.118 0 0012.434 4.658v5.664c-1.917.278-3.4 1.917-3.4 3.91A3.972 3.972 0 0033.433 68a3.972 3.972 0 003.967-3.967 3.96 3.96 0 00-2.266-3.568v-6.07c4.532-.398 8.628-2.3 11.81-5.2L60.3 62.75a3.91 3.91 0 00-.233 1.283A3.972 3.972 0 0064.034 68 3.972 3.972 0 0068 64.033a3.972 3.972 0 00-3.967-3.967zm-28.9-15.905c1.403.14 2.77.454 4.087.91-1.066 3.245-2.551 5.51-4.087 6.427V44.16zm0-2.275v-6.753h5.647c-.059 2.87-.396 5.49-.938 7.757a20.127 20.127 0 00-4.709-1.004zm0-9.02V26.63a20.145 20.145 0 004.71-1.003c.508 2.13.838 4.572.925 7.24h-5.635zm0-8.511v-7.338c1.536.918 3.021 3.182 4.088 6.428a17.935 17.935 0 01-4.088.91zm3.343-7.304c2.31.689 4.43 1.824 6.249 3.316a17.913 17.913 0 01-3.4 2.21c-.754-2.244-1.723-4.123-2.849-5.526zm-5.61-.37v7.74a17.978 17.978 0 01-4.874-.796c1.236-3.86 3.063-6.376 4.875-6.943zm-6.995 6.117a17.836 17.836 0 01-3.894-2.423 17.91 17.91 0 016.963-3.506c-1.226 1.465-2.274 3.49-3.069 5.929zm6.996 3.89v6.179h-6.363c.086-2.593.401-4.967.885-7.053 1.758.54 3.598.83 5.478.874zm0 8.445v6.694a20.25 20.25 0 00-5.478.87c-.516-2.222-.839-4.772-.897-7.564h6.375zm0 8.961v7.74c-1.812-.568-3.64-3.086-4.876-6.947a17.98 17.98 0 014.876-.793zm-3.927 7.552a17.907 17.907 0 01-6.969-3.51 17.864 17.864 0 013.9-2.42c.795 2.44 1.843 4.465 3.069 5.93zm12.385-5.71a17.927 17.927 0 013.399 2.213 17.928 17.928 0 01-6.249 3.315c1.127-1.402 2.096-3.283 2.85-5.528zm5.057.65a20.197 20.197 0 00-4.412-2.843c.64-2.567 1.016-5.487 1.077-8.61h8.225a17.873 17.873 0 01-4.89 11.453zM62.9 32.866a1.701 1.701 0 11-1.7 1.7c0-.937.763-1.7 1.7-1.7zm-19.866 0c-.09-2.928-.46-5.67-1.065-8.095a20.153 20.153 0 004.413-2.84 17.878 17.878 0 014.864 10.936h-8.212zm21-30.6a1.701 1.701 0 11-1.701 1.7c0-.937.763-1.7 1.7-1.7zm-32.3 1.7c0-.937.762-1.7 1.7-1.7a1.701 1.701 0 11-1.701 1.7zm-29.468 0c0-.937.763-1.7 1.7-1.7a1.701 1.701 0 11-1.7 1.7zm18.059 17.969a20.11 20.11 0 004.925 3.073c-.572 2.368-.924 5.023-1.012 7.859h-8.772a17.875 17.875 0 014.859-10.932zM3.967 36.267a1.701 1.701 0 111.7-1.7c0 .937-.763 1.7-1.7 1.7zm20.26-1.134c.059 3.028.417 5.861 1.022 8.37a20.087 20.087 0 00-4.928 3.074 17.87 17.87 0 01-4.882-11.444h8.788zm-20.26 30.6a1.701 1.701 0 010-3.4 1.695 1.695 0 011.453.833c.153.255.247.549.247.867 0 .938-.763 1.7-1.7 1.7zm29.466 0a1.701 1.701 0 010-3.4 1.701 1.701 0 010 3.4zm30.6 0c-.937 0-1.7-.762-1.7-1.7 0-.937.763-1.7 1.7-1.7a1.7 1.7 0 010 3.4z" fill="#BE0000"/><path d="M64.033 60.066c-.9 0-1.722.314-2.389.822L48.536 47.58a20.11 20.11 0 005.002-12.448h5.453c.277 1.918 1.916 3.4 3.909 3.4a3.971 3.971 0 003.967-3.967A3.972 3.972 0 0062.9 30.6c-1.576 0-2.93.932-3.569 2.268h-5.819a20.118 20.118 0 00-5.161-12.136L61.524 7.011a3.925 3.925 0 002.51.921A3.972 3.972 0 0068 3.967 3.972 3.972 0 0064.033 0a3.971 3.971 0 00-3.967 3.967c0 .386.074.753.177 1.106l-13.502 14.06c-3.154-2.793-7.172-4.623-11.608-5.012V7.535A3.96 3.96 0 0037.4 3.967 3.972 3.972 0 0033.433 0a3.972 3.972 0 00-3.967 3.967c0 1.993 1.484 3.631 3.4 3.909v6.18a20.119 20.119 0 00-12.612 4.82L7.43 5.86a3.911 3.911 0 00.503-1.893A3.971 3.971 0 003.967 0 3.971 3.971 0 000 3.967a3.971 3.971 0 003.967 3.966c.672 0 1.296-.183 1.851-.48L18.62 20.445a20.133 20.133 0 00-5.42 12.42H7.536a3.961 3.961 0 00-3.57-2.266A3.971 3.971 0 000 34.567a3.971 3.971 0 003.967 3.966c1.993 0 3.631-1.482 3.909-3.4h5.297a20.136 20.136 0 005.604 13.11l-.003.015L6.518 61.022a3.93 3.93 0 00-2.551-.956A3.971 3.971 0 000 64.034 3.972 3.972 0 003.967 68a3.972 3.972 0 003.966-3.967c0-.365-.065-.712-.158-1.048l12.658-13.183a20.118 20.118 0 0012.434 4.658v5.664c-1.917.278-3.4 1.917-3.4 3.91A3.972 3.972 0 0033.433 68a3.972 3.972 0 003.967-3.967 3.96 3.96 0 00-2.266-3.568v-6.07c4.532-.398 8.628-2.3 11.81-5.2L60.3 62.75a3.91 3.91 0 00-.233 1.283A3.972 3.972 0 0064.034 68 3.972 3.972 0 0068 64.033a3.972 3.972 0 00-3.967-3.967v0zm-28.9-15.905c1.403.14 2.77.454 4.087.91-1.066 3.245-2.551 5.51-4.087 6.427V44.16zm0-2.275v-6.753h5.647c-.059 2.87-.396 5.49-.938 7.757a20.127 20.127 0 00-4.709-1.004zm0-9.02V26.63a20.145 20.145 0 004.71-1.003c.508 2.13.838 4.572.925 7.24h-5.635zm0-8.511v-7.338c1.536.918 3.021 3.182 4.088 6.428a17.935 17.935 0 01-4.088.91zm3.343-7.304c2.31.689 4.43 1.824 6.249 3.316a17.913 17.913 0 01-3.4 2.21c-.754-2.244-1.723-4.123-2.849-5.526zm-5.61-.37v7.74a17.978 17.978 0 01-4.874-.796c1.236-3.86 3.063-6.376 4.875-6.943zm-6.995 6.117a17.836 17.836 0 01-3.894-2.423 17.91 17.91 0 016.963-3.506c-1.226 1.465-2.274 3.49-3.069 5.929zm6.996 3.89v6.179h-6.363c.086-2.593.401-4.967.885-7.053 1.758.54 3.598.83 5.478.874zm0 8.445v6.694a20.25 20.25 0 00-5.478.87c-.516-2.222-.839-4.772-.897-7.564h6.375zm0 8.961v7.74c-1.812-.568-3.64-3.086-4.876-6.947a17.98 17.98 0 014.876-.793zm-3.927 7.552a17.907 17.907 0 01-6.969-3.51 17.864 17.864 0 013.9-2.42c.795 2.44 1.843 4.465 3.069 5.93zm12.385-5.71a17.927 17.927 0 013.399 2.213 17.928 17.928 0 01-6.249 3.315c1.127-1.402 2.096-3.283 2.85-5.528v0zm5.057.65a20.197 20.197 0 00-4.412-2.843c.64-2.567 1.016-5.487 1.077-8.61h8.225a17.873 17.873 0 01-4.89 11.453zM62.9 32.866a1.701 1.701 0 11-1.7 1.7c0-.937.763-1.7 1.7-1.7v0zm-19.866 0c-.09-2.928-.46-5.67-1.065-8.095a20.153 20.153 0 004.413-2.84 17.878 17.878 0 014.864 10.936h-8.212zm21-30.6a1.701 1.701 0 11-1.701 1.7c0-.937.763-1.7 1.7-1.7v0zm-32.3 1.7c0-.937.762-1.7 1.7-1.7a1.701 1.701 0 11-1.701 1.7zm-29.468 0c0-.937.763-1.7 1.7-1.7a1.701 1.701 0 11-1.7 1.7v0zm18.059 17.969a20.11 20.11 0 004.925 3.073c-.572 2.368-.924 5.023-1.012 7.859h-8.772a17.875 17.875 0 014.859-10.932zM3.967 36.267a1.701 1.701 0 111.7-1.7c0 .937-.763 1.7-1.7 1.7zm20.26-1.134c.059 3.028.417 5.861 1.022 8.37a20.087 20.087 0 00-4.928 3.074 17.87 17.87 0 01-4.882-11.444h8.788zm-20.26 30.6a1.701 1.701 0 010-3.4 1.695 1.695 0 011.453.833c.153.255.247.549.247.867 0 .938-.763 1.7-1.7 1.7v0zm29.466 0a1.701 1.701 0 010-3.4 1.701 1.701 0 010 3.4v0zm30.6 0c-.937 0-1.7-.762-1.7-1.7 0-.937.763-1.7 1.7-1.7a1.7 1.7 0 010 3.4v0z" stroke="#BE0000" stroke-width=".8" mask="url(#a)"/></g><defs><clipPath id="clip0"><path fill="#fff" d="M0 0h68v68H0z"/></clipPath></defs></svg>